<?xml version="1.0" encoding="UTF-8" standalone="no"?>
<!DOCTYPE svg PUBLIC "-//W3C//DTD SVG 1.1//EN" "http://www.w3.org/Graphics/SVG/1.1/DTD/svg11.dtd">
<svg width="100%" height="100%" viewBox="0 0 21 56" version="1.1" xmlns="http://www.w3.org/2000/svg" xmlns:xlink="http://www.w3.org/1999/xlink" xml:space="preserve" xmlns:serif="http://www.serif.com/" style="fill-rule:evenodd;clip-rule:evenodd;stroke-linecap:round;stroke-linejoin:round;stroke-miterlimit:1.5;">
    <g transform="matrix(1,0,0,1,-441.546,-866.105)">
        <path d="M451.13,872.074C452.03,874.487 455.157,882.334 456.431,886.616C457.547,890.366 458.831,895.317 460,899C461.234,902.887 461.87,910.24 461.87,911.574C461.87,912.574 461.716,914.039 461.634,914.721C461.484,915.966 460.986,917.087 460.682,917.447C460.502,917.659 459.887,918.8 457.972,919.556C456.791,920.021 454.581,920.666 452.043,920.861C449.71,921.039 446.826,920.987 445.255,920.961C444.313,920.945 442.158,921.245 442.111,920.304C441.777,913.637 442.833,875.667 443,869C443.019,868.255 443.293,867.236 444,867C445,866.667 447.96,866.258 448.83,867.115C449.725,867.996 450.452,870.257 451.13,872.074Z" style="fill:none;stroke:rgb(255,82,255);stroke-opacity:0.69;stroke-width:1px;"/>
    </g>
</svg>
